<svg width="38" height="59" viewBox="0 0 38 59" fill="none" xmlns="http://www.w3.org/2000/svg">
<g filter="url(#filter0_f_3_285)">
<path d="M23.5427 21.7954V17.0407C23.5427 14.8942 24.0671 13.8084 27.7513 13.8084H32.3739V5.82141H24.6604C15.2083 5.82141 12.0898 9.74004 12.0898 16.4666V21.7954H5.88037V29.7824H12.0898V53.7435H23.5427V29.7824H31.3252L32.3739 21.7954H23.5427Z" fill="#13488C" fill-opacity="0.5"/>
</g>
<mask id="path-2-inside-1_3_285" fill="white">
<path fill-rule="evenodd" clip-rule="evenodd" d="M25.6207 16.8088V21.7955H33.9324L32.9454 30.1721H25.6207V55.302H25.6147V55.475C22.7729 56.2342 17.127 56.0666 14.8396 55.5581V54.4519H14.8415V30.1721H8.99731V21.7955H14.8415V16.2067C14.8415 9.15202 17.7765 5.04224 26.6726 5.04224H33.9324V13.4189H29.5817C26.1142 13.4189 25.6207 14.5576 25.6207 16.8088Z"/>
</mask>
<path fill-rule="evenodd" clip-rule="evenodd" d="M25.6207 16.8088V21.7955H33.9324L32.9454 30.1721H25.6207V55.302H25.6147V55.475C22.7729 56.2342 17.127 56.0666 14.8396 55.5581V54.4519H14.8415V30.1721H8.99731V21.7955H14.8415V16.2067C14.8415 9.15202 17.7765 5.04224 26.6726 5.04224H33.9324V13.4189H29.5817C26.1142 13.4189 25.6207 14.5576 25.6207 16.8088Z" fill="white" fill-opacity="0.9"/>
<path d="M25.6207 21.7955H25.1207V22.2955H25.6207V21.7955ZM33.9324 21.7955L34.4289 21.854L34.4948 21.2955H33.9324V21.7955ZM32.9454 30.1721V30.6721H33.3899L33.4419 30.2306L32.9454 30.1721ZM25.6207 30.1721V29.6721H25.1207V30.1721H25.6207ZM25.6207 55.302V55.802H26.1207V55.302H25.6207ZM25.6147 55.302V54.802H25.1147V55.302H25.6147ZM25.6147 55.475L25.7438 55.958L26.1147 55.8589V55.475H25.6147ZM14.8396 55.5581H14.3396V55.9592L14.7311 56.0462L14.8396 55.5581ZM14.8396 54.4519V53.9519H14.3396V54.4519H14.8396ZM14.8415 54.4519V54.9519H15.3415V54.4519H14.8415ZM14.8415 30.1721H15.3415V29.6721H14.8415V30.1721ZM8.99731 30.1721H8.49731V30.6721H8.99731V30.1721ZM8.99731 21.7955V21.2955H8.49731V21.7955H8.99731ZM14.8415 21.7955V22.2955H15.3415V21.7955H14.8415ZM33.9324 5.04224H34.4324V4.54224H33.9324V5.04224ZM33.9324 13.4189V13.9189H34.4324V13.4189H33.9324ZM26.1207 21.7955V16.8088H25.1207V21.7955H26.1207ZM33.9324 21.2955H25.6207V22.2955H33.9324V21.2955ZM33.4419 30.2306L34.4289 21.854L33.4358 21.737L32.4488 30.1136L33.4419 30.2306ZM25.6207 30.6721H32.9454V29.6721H25.6207V30.6721ZM26.1207 55.302V30.1721H25.1207V55.302H26.1207ZM25.6147 55.802H25.6207V54.802H25.6147V55.802ZM25.1147 55.302V55.475H26.1147V55.302H25.1147ZM25.4857 54.9919C24.1307 55.3539 22.0627 55.5024 20.0218 55.4919C17.9836 55.4814 16.0411 55.313 14.9482 55.07L14.7311 56.0462C15.9256 56.3117 17.9497 56.4813 20.0167 56.4919C22.081 56.5025 24.2569 56.3552 25.7438 55.958L25.4857 54.9919ZM15.3396 55.5581V54.4519H14.3396V55.5581H15.3396ZM14.8396 54.9519H14.8415V53.9519H14.8396V54.9519ZM14.3415 30.1721V54.4519H15.3415V30.1721H14.3415ZM8.99731 30.6721H14.8415V29.6721H8.99731V30.6721ZM8.49731 21.7955V30.1721H9.49731V21.7955H8.49731ZM14.8415 21.2955H8.99731V22.2955H14.8415V21.2955ZM14.3415 16.2067V21.7955H15.3415V16.2067H14.3415ZM26.6726 4.54224C22.1586 4.54224 19.0409 5.58403 17.0615 7.63144C15.0849 9.67611 14.3415 12.6234 14.3415 16.2067H15.3415C15.3415 12.7353 16.0656 10.1004 17.7805 8.32649C19.4927 6.55534 22.2906 5.54224 26.6726 5.54224V4.54224ZM33.9324 4.54224H26.6726V5.54224H33.9324V4.54224ZM34.4324 13.4189V5.04224H33.4324V13.4189H34.4324ZM29.5817 13.9189H33.9324V12.9189H29.5817V13.9189ZM26.1207 16.8088C26.1207 15.6814 26.2559 15.0284 26.6573 14.6202C27.0623 14.2086 27.8671 13.9189 29.5817 13.9189V12.9189C27.8288 12.9189 26.6531 13.1985 25.9444 13.919C25.2322 14.643 25.1207 15.6849 25.1207 16.8088H26.1207Z" fill="url(#paint0_linear_3_285)" mask="url(#path-2-inside-1_3_285)"/>
<defs>
<filter id="filter0_f_3_285" x="0.880371" y="0.821411" width="36.4934" height="57.9221" filterUnits="userSpaceOnUse" color-interpolation-filters="sRGB">
<feFlood flood-opacity="0" result="BackgroundImageFix"/>
<feBlend mode="normal" in="SourceGraphic" in2="BackgroundImageFix" result="shape"/>
<feGaussianBlur stdDeviation="2.5" result="effect1_foregroundBlur_3_285"/>
</filter>
<linearGradient id="paint0_linear_3_285" x1="21.4648" y1="5.04224" x2="21.4648" y2="55.9924" gradientUnits="userSpaceOnUse">
<stop stop-color="white"/>
<stop offset="1" stop-color="white" stop-opacity="0"/>
</linearGradient>
</defs>
</svg>
