<svg width="55" height="54" viewBox="0 0 55 54" fill="none" xmlns="http://www.w3.org/2000/svg">
<g filter="url(#filter0_f_3_293)">
<path fill-rule="evenodd" clip-rule="evenodd" d="M18.4804 14.1168C18.4804 16.161 16.7361 17.8181 14.5843 17.8181C12.4326 17.8181 10.6882 16.161 10.6882 14.1168C10.6882 12.0727 12.4326 10.4155 14.5843 10.4155C16.7361 10.4155 18.4804 12.0727 18.4804 14.1168ZM10.6882 43.922H17.8682V19.7662H10.6882V43.922ZM37.0148 43.922H44.1947V30.2812C44.1947 27.0178 43.436 24.694 41.9115 22.962C40.3965 21.2324 38.4125 20.544 35.9593 20.544C32.7331 20.544 30.3805 22.1818 28.9086 24.5973H28.7602L28.3222 19.7662H22.6548C22.7506 22.1818 22.6548 43.922 22.6548 43.922H29.8348V28.7956C30.4283 26.9187 31.6106 25.9815 33.475 25.9815C35.8277 25.9815 37.0148 27.6555 37.0148 31.018V43.922Z" fill="#0B4C8C"/>
</g>
<mask id="path-2-inside-1_3_293" fill="white">
<path fill-rule="evenodd" clip-rule="evenodd" d="M21.5974 12.1688C21.5974 14.213 19.853 15.8701 17.7013 15.8701C15.5495 15.8701 13.8052 14.213 13.8052 12.1688C13.8052 10.1247 15.5495 8.46753 17.7013 8.46753C19.853 8.46753 21.5974 10.1247 21.5974 12.1688ZM13.8052 41.974H20.9851V17.8182H13.8052V41.974ZM40.1317 41.974H47.3117V28.3332C47.3117 25.0698 46.553 22.746 45.0284 21.014C43.5135 19.2844 41.5294 18.596 39.0763 18.596C35.8501 18.596 33.4974 20.2338 32.0255 22.6493H31.8771L31.4392 17.8182H25.7718C25.8675 20.2338 25.7718 41.974 25.7718 41.974H32.9517V26.8476C33.5453 24.9707 34.7276 24.0335 36.592 24.0335C38.9446 24.0335 40.1317 25.7075 40.1317 29.07V41.974Z"/>
</mask>
<path fill-rule="evenodd" clip-rule="evenodd" d="M21.5974 12.1688C21.5974 14.213 19.853 15.8701 17.7013 15.8701C15.5495 15.8701 13.8052 14.213 13.8052 12.1688C13.8052 10.1247 15.5495 8.46753 17.7013 8.46753C19.853 8.46753 21.5974 10.1247 21.5974 12.1688ZM13.8052 41.974H20.9851V17.8182H13.8052V41.974ZM40.1317 41.974H47.3117V28.3332C47.3117 25.0698 46.553 22.746 45.0284 21.014C43.5135 19.2844 41.5294 18.596 39.0763 18.596C35.8501 18.596 33.4974 20.2338 32.0255 22.6493H31.8771L31.4392 17.8182H25.7718C25.8675 20.2338 25.7718 41.974 25.7718 41.974H32.9517V26.8476C33.5453 24.9707 34.7276 24.0335 36.592 24.0335C38.9446 24.0335 40.1317 25.7075 40.1317 29.07V41.974Z" fill="white" fill-opacity="0.9"/>
<path d="M20.9851 41.974V42.474H21.4851V41.974H20.9851ZM13.8052 41.974H13.3052V42.474H13.8052V41.974ZM20.9851 17.8182H21.4851V17.3182H20.9851V17.8182ZM13.8052 17.8182V17.3182H13.3052V17.8182H13.8052ZM47.3117 41.974V42.474H47.8117V41.974H47.3117ZM40.1317 41.974H39.6317V42.474H40.1317V41.974ZM45.0284 21.014L44.6523 21.3434L44.6531 21.3444L45.0284 21.014ZM32.0255 22.6493V23.1493H32.3064L32.4525 22.9095L32.0255 22.6493ZM31.8771 22.6493L31.3792 22.6945L31.4204 23.1493H31.8771V22.6493ZM31.4392 17.8182L31.9371 17.773L31.8959 17.3182H31.4392V17.8182ZM25.7718 17.8182V17.3182H25.2516L25.2722 17.838L25.7718 17.8182ZM25.7718 41.974L25.2718 41.9718L25.2696 42.474H25.7718V41.974ZM32.9517 41.974V42.474H33.4517V41.974H32.9517ZM32.9517 26.8476L32.475 26.6969L32.4517 26.7705V26.8476H32.9517ZM17.7013 16.3701C20.1047 16.3701 22.0974 14.513 22.0974 12.1688H21.0974C21.0974 13.913 19.6014 15.3701 17.7013 15.3701V16.3701ZM13.3052 12.1688C13.3052 14.513 15.2979 16.3701 17.7013 16.3701V15.3701C15.8012 15.3701 14.3052 13.913 14.3052 12.1688H13.3052ZM17.7013 7.96753C15.2979 7.96753 13.3052 9.82466 13.3052 12.1688H14.3052C14.3052 10.4247 15.8012 8.96753 17.7013 8.96753V7.96753ZM22.0974 12.1688C22.0974 9.82466 20.1047 7.96753 17.7013 7.96753V8.96753C19.6014 8.96753 21.0974 10.4247 21.0974 12.1688H22.0974ZM20.9851 41.474H13.8052V42.474H20.9851V41.474ZM20.4851 17.8182V41.974H21.4851V17.8182H20.4851ZM13.8052 18.3182H20.9851V17.3182H13.8052V18.3182ZM14.3052 41.974V17.8182H13.3052V41.974H14.3052ZM47.3117 41.474H40.1317V42.474H47.3117V41.474ZM46.8117 28.3332V41.974H47.8117V28.3332H46.8117ZM44.6531 21.3444C46.0732 22.9576 46.8117 25.1491 46.8117 28.3332H47.8117C47.8117 24.9904 47.0328 22.5343 45.4038 20.6836L44.6531 21.3444ZM39.0763 19.096C41.4261 19.096 43.2562 19.7496 44.6523 21.3434L45.4046 20.6845C43.7707 18.8193 41.6328 18.096 39.0763 18.096V19.096ZM32.4525 22.9095C33.8469 20.6211 36.0486 19.096 39.0763 19.096V18.096C35.6515 18.096 33.1479 19.8465 31.5985 22.3892L32.4525 22.9095ZM31.8771 23.1493H32.0255V22.1493H31.8771V23.1493ZM30.9412 17.8633L31.3792 22.6945L32.3751 22.6042L31.9371 17.773L30.9412 17.8633ZM25.7718 18.3182H31.4392V17.3182H25.7718V18.3182ZM25.7718 41.974C26.2718 41.9762 26.2718 41.9761 26.2718 41.976C26.2718 41.9758 26.2718 41.9756 26.2718 41.9752C26.2718 41.9746 26.2718 41.9736 26.2718 41.9722C26.2718 41.9696 26.2718 41.9657 26.2718 41.9604C26.2719 41.95 26.272 41.9344 26.272 41.9137C26.2722 41.8725 26.2725 41.8113 26.2728 41.7314C26.2735 41.5715 26.2745 41.3368 26.2757 41.0372C26.2781 40.4379 26.2815 39.5792 26.2852 38.5412C26.2927 36.4651 26.3017 33.6718 26.3077 30.803C26.3196 25.0748 26.3198 19.0198 26.2714 17.7984L25.2722 17.838C25.3195 19.0321 25.3197 25.055 25.3077 30.8009C25.3017 33.6691 25.2927 36.4618 25.2852 38.5376C25.2815 39.5754 25.2781 40.434 25.2757 41.0331C25.2745 41.3327 25.2735 41.5674 25.2728 41.7272C25.2725 41.807 25.2722 41.8682 25.2721 41.9094C25.272 41.93 25.2719 41.9456 25.2719 41.9561C25.2718 41.9613 25.2718 41.9652 25.2718 41.9679C25.2718 41.9692 25.2718 41.9702 25.2718 41.9708C25.2718 41.9712 25.2718 41.9714 25.2718 41.9716C25.2718 41.9717 25.2718 41.9718 25.7718 41.974ZM32.9517 41.474H25.7718V42.474H32.9517V41.474ZM32.4517 26.8476V41.974H33.4517V26.8476H32.4517ZM36.592 23.5335C35.573 23.5335 34.6964 23.7912 33.9883 24.3421C33.2838 24.89 32.7929 25.6917 32.475 26.6969L33.4285 26.9984C33.7042 26.1266 34.1011 25.5212 34.6023 25.1314C35.0998 24.7444 35.7465 24.5335 36.592 24.5335V23.5335ZM40.6317 29.07C40.6317 27.3451 40.33 25.9641 39.6529 25.0029C38.9533 24.0097 37.9029 23.5335 36.592 23.5335V24.5335C37.6337 24.5335 38.3532 24.8943 38.8353 25.5787C39.3399 26.2951 39.6317 27.4324 39.6317 29.07H40.6317ZM40.6317 41.974V29.07H39.6317V41.974H40.6317Z" fill="url(#paint0_linear_3_293)" mask="url(#path-2-inside-1_3_293)"/>
<defs>
<filter id="filter0_f_3_293" x="0.688232" y="0.415527" width="53.5066" height="53.5065" filterUnits="userSpaceOnUse" color-interpolation-filters="sRGB">
<feFlood flood-opacity="0" result="BackgroundImageFix"/>
<feBlend mode="normal" in="SourceGraphic" in2="BackgroundImageFix" result="shape"/>
<feGaussianBlur stdDeviation="5" result="effect1_foregroundBlur_3_293"/>
</filter>
<linearGradient id="paint0_linear_3_293" x1="30.5584" y1="8.46753" x2="30.5584" y2="41.974" gradientUnits="userSpaceOnUse">
<stop stop-color="white"/>
<stop offset="1" stop-color="white" stop-opacity="0"/>
</linearGradient>
</defs>
</svg>
