<svg width="38" height="31" viewBox="0 0 38 31" fill="none" xmlns="http://www.w3.org/2000/svg">
<path d="M26.2622 1.05518C28.3747 1.05524 30.2833 1.94526 31.6226 3.36865L31.7173 3.46924L31.853 3.44287C33.3797 3.1427 34.8244 2.61868 36.1548 1.90869C35.5878 3.23997 34.6365 4.3683 33.4399 5.15771L33.1597 5.33447L33.3169 5.79736C34.5806 5.6476 35.7956 5.34454 36.9468 4.91064C36.0348 6.11897 34.9436 7.19026 33.7153 8.07275L33.605 8.15186L33.6108 8.28662C33.6249 8.6079 33.6323 8.93162 33.6323 9.25635C33.6323 19.1566 26.0786 30.5551 12.2769 30.5552C8.41769 30.5552 4.80354 29.5257 1.6792 27.7378C1.93398 27.7502 2.1902 27.7583 2.44775 27.7583C6.06375 27.7583 9.39142 26.5281 12.0327 24.4634L12.5874 24.0288L11.8833 24.0161C8.81579 23.9601 6.20543 22.0266 5.16162 19.3198C5.50568 19.3667 5.85634 19.3931 6.21436 19.3931C6.92932 19.393 7.62193 19.2966 8.27979 19.1187L8.26416 18.6323C5.00446 17.9784 2.52479 15.1733 2.37939 11.7681C3.34411 12.2365 4.42 12.5169 5.55518 12.5532L6.43115 12.5815L5.70166 12.0952C3.7309 10.7817 2.43506 8.53955 2.43506 5.99951C2.4351 4.78374 2.732 3.63882 3.25635 2.63135C7.04178 7.10724 12.5996 10.0406 18.853 10.354L19.1851 10.3706L19.1089 10.0474C18.9835 9.51136 18.9195 8.95297 18.9194 8.37939C18.9194 4.33512 22.2065 1.05518 26.2622 1.05518Z" fill="white" fill-opacity="0.9" stroke="url(#paint0_linear_1871_742)" stroke-width="0.5"/>
<defs>
<linearGradient id="paint0_linear_1871_742" x1="19.1427" y1="0.805176" x2="19.1427" y2="30.8052" gradientUnits="userSpaceOnUse">
<stop stop-color="white"/>
<stop offset="1" stop-color="white" stop-opacity="0"/>
</linearGradient>
</defs>
</svg>
