<svg width="56" height="46" viewBox="0 0 56 46" fill="none" xmlns="http://www.w3.org/2000/svg">
<g filter="url(#filter0_f_3_303)">
<path d="M44.8438 13.9846C44.4361 12.4519 43.2348 11.245 41.7093 10.8354C38.9441 10.0909 27.8572 10.0909 27.8572 10.0909C27.8572 10.0909 16.7702 10.0909 14.005 10.8354C12.4798 11.245 11.2783 12.4519 10.8706 13.9846C10.1299 16.7625 10.1299 22.5587 10.1299 22.5587C10.1299 22.5587 10.1299 28.3547 10.8706 31.1323C11.2783 32.665 12.4798 33.8723 14.005 34.2818C16.7702 35.026 27.8572 35.026 27.8572 35.026C27.8572 35.026 38.9441 35.026 41.7093 34.2818C43.2348 33.8723 44.4361 32.665 44.8438 31.1323C45.5844 28.3547 45.5844 22.5587 45.5844 22.5587C45.5844 22.5587 45.5844 16.7625 44.8438 13.9846ZM24.3115 27.902V17.2153L33.5227 22.5587L24.3115 27.902Z" fill="#9B0000"/>
</g>
<path d="M29.9294 8.78247C30.0111 8.78265 30.1318 8.78272 30.2859 8.78345C30.594 8.7849 31.0373 8.78838 31.5779 8.79419C32.6595 8.80581 34.1306 8.82878 35.6873 8.87524C37.2442 8.92172 38.8854 8.99165 40.3083 9.09595C41.5598 9.18768 42.6264 9.30543 43.3191 9.45337L43.5925 9.51782V9.5188C44.9413 9.88105 46.0226 10.9043 46.4695 12.2229L46.5505 12.4905C46.9133 13.8512 47.0976 15.9707 47.1902 17.7678C47.2363 18.6626 47.2597 19.471 47.2712 20.0559C47.277 20.3483 47.2796 20.5852 47.281 20.7483C47.2817 20.8297 47.2818 20.8931 47.282 20.9358V21.0647C47.2818 21.1074 47.2817 21.1708 47.281 21.2522C47.2796 21.4153 47.277 21.6522 47.2712 21.9446C47.2597 22.5294 47.2363 23.338 47.1902 24.2327C47.1034 25.9173 46.9355 27.8849 46.616 29.2454L46.5505 29.509V29.51C46.1897 30.8663 45.1697 31.952 43.8582 32.4006L43.5925 32.4817C42.9274 32.6607 41.7384 32.7998 40.3083 32.9045C38.8854 33.0088 37.2442 33.0778 35.6873 33.1243C34.1306 33.1707 32.6595 33.1947 31.5779 33.2063C31.0373 33.2121 30.594 33.2146 30.2859 33.2161C30.1318 33.2168 30.0111 33.2169 29.9294 33.217C29.8888 33.2171 29.8576 33.217 29.8367 33.217C29.8263 33.2171 29.8185 33.218 29.8132 33.218H29.7976C29.7923 33.218 29.7837 33.2171 29.7732 33.217C29.7522 33.217 29.721 33.2171 29.6804 33.217C29.5988 33.2169 29.4787 33.2168 29.325 33.2161C29.0168 33.2146 28.5727 33.2121 28.032 33.2063C26.9505 33.1947 25.48 33.1707 23.9236 33.1243C22.3666 33.0778 20.7256 33.0088 19.3025 32.9045C18.0512 32.8129 16.9845 32.695 16.2917 32.5471L16.0183 32.4817C14.67 32.1196 13.5884 31.096 13.1414 29.7776L13.0603 29.51V29.509C12.6975 28.1485 12.5123 26.0296 12.4197 24.2327C12.3736 23.338 12.3511 22.5294 12.3396 21.9446C12.3338 21.6522 12.3303 21.4153 12.3289 21.2522C12.3281 21.1708 12.3281 21.1074 12.3279 21.0647V20.9358C12.3281 20.8931 12.3281 20.8297 12.3289 20.7483C12.3303 20.5852 12.3338 20.3483 12.3396 20.0559C12.3511 19.471 12.3736 18.6625 12.4197 17.7678C12.5065 16.083 12.6743 14.1147 12.9939 12.7542L13.0603 12.4905C13.421 11.1343 14.4405 10.0487 15.7517 9.59985L16.0183 9.5188V9.51782C16.6836 9.33879 17.8726 9.20075 19.3025 9.09595C20.7256 8.99165 22.3666 8.92172 23.9236 8.87524C25.48 8.82879 26.9505 8.80581 28.032 8.79419C28.5727 8.78838 29.0168 8.7849 29.325 8.78345C29.4787 8.78272 29.5988 8.78265 29.6804 8.78247H29.9294ZM26.0095 26.7776L26.3845 26.5598L35.5964 21.2161L35.9685 21.0002L35.5964 20.7844L26.3845 15.4407L26.0095 15.2229V26.7776Z" fill="white" fill-opacity="0.9" stroke="url(#paint0_linear_3_303)" stroke-width="0.5"/>
<defs>
<filter id="filter0_f_3_303" x="0.129883" y="0.0909424" width="55.4546" height="44.9351" filterUnits="userSpaceOnUse" color-interpolation-filters="sRGB">
<feFlood flood-opacity="0" result="BackgroundImageFix"/>
<feBlend mode="normal" in="SourceGraphic" in2="BackgroundImageFix" result="shape"/>
<feGaussianBlur stdDeviation="5" result="effect1_foregroundBlur_3_303"/>
</filter>
<linearGradient id="paint0_linear_3_303" x1="29.8052" y1="8.53247" x2="29.8052" y2="33.4675" gradientUnits="userSpaceOnUse">
<stop stop-color="white"/>
<stop offset="1" stop-color="white" stop-opacity="0"/>
</linearGradient>
</defs>
</svg>
